<svg width="217" height="65" viewBox="0 0 217 65" fill="none" xmlns="http://www.w3.org/2000/svg">
<path d="M115.003 32.7553H109.799V38.3169H108.671V32.7553H103.466V31.5274H108.671V25.9658H109.799V31.5274H115.003V32.7553Z" fill="white"/>
<path d="M213.984 49.3557V63.4374H217.319V64.0123H205.683C204.155 64.0123 202.917 63.917 201.937 63.7263C200.956 63.5356 200.119 63.1398 199.41 62.5504C198.701 61.9639 198.341 61.2677 198.341 60.502C198.341 59.5457 198.859 58.7541 199.89 58.1676C200.919 57.5811 202.686 57.116 205.143 56.8155V56.7606C203.376 56.515 201.926 56.0239 200.779 55.3131C199.64 54.6024 199.082 53.3745 199.082 51.6526C199.082 50.6703 198.921 50.0404 198.601 49.7544C198.282 49.4684 197.822 49.3442 197.264 49.3442C196.893 49.3442 196.455 49.399 195.934 49.5088V48.9483C196.842 48.7172 197.734 48.6074 198.601 48.6074C200.339 48.6074 201.569 48.9628 202.296 49.6591C203.016 50.3554 203.355 51.0401 203.336 51.7075L203.266 53.6461C203.266 54.3164 203.567 54.9838 204.174 55.6396C204.762 56.2954 206.121 56.6219 208.229 56.6219H210.216V49.3846H206.87V48.8097H217.327V49.3846H213.981V49.3557H213.984ZM210.219 63.4345V57.1246H207.361C206.142 57.1246 205.205 57.1795 204.555 57.3009C203.905 57.4251 203.398 57.7256 203.005 58.2167C202.605 58.7079 202.417 59.4995 202.417 60.58C202.417 61.467 202.608 62.1084 203.005 62.5187C203.395 62.9289 203.865 63.1745 204.423 63.2698C204.982 63.3652 205.702 63.4056 206.612 63.4056H210.219V63.4345Z" fill="white"/>
<path d="M179.082 63.4348V56.9053H177.165C176.485 56.9053 175.916 56.9457 175.446 57.0411C174.976 57.1364 174.557 57.3964 174.179 57.8067C173.808 58.2314 173.598 58.8728 173.529 59.7598H172.71V53.2996H173.529C173.617 54.5275 173.948 55.3336 174.517 55.7294C175.097 56.1252 175.975 56.3159 177.165 56.3159H179.082V49.3502H174.748C172.301 49.3502 170.601 49.72 169.664 50.4567C168.724 51.1934 168.147 52.3404 167.975 53.8717H167.156L167.365 48.7637H186.194V49.3386H182.818V63.4203H186.194V63.9952H168.133L167.763 59.9244H168.582C168.861 61.1523 169.412 62.0537 170.271 62.5998C171.12 63.1458 172.548 63.4203 174.546 63.4203H179.082V63.4348Z" fill="white"/>
<path d="M144.879 64.1859L144.78 60.2248H145.529C146.579 62.5997 148.446 63.7756 151.123 63.7756C152.611 63.7756 153.75 63.4896 154.561 62.8886C155.39 62.3021 155.799 61.6868 155.799 61.0714C155.799 60.4849 155.45 59.9937 154.781 59.5835C154.091 59.1732 152.853 58.8583 151.045 58.6416C149.246 58.422 147.858 58.1504 146.92 57.8211C145.98 57.4946 145.183 56.9601 144.533 56.2089C143.894 55.4578 143.563 54.5968 143.563 53.6289C143.563 52.1381 144.243 50.8958 145.591 49.899C146.95 48.9023 148.628 48.4111 150.645 48.4111C152.283 48.4111 153.921 48.8474 155.541 49.7228L157.029 48.7665H157.587V53.028H156.897C156.277 51.6903 155.399 50.6791 154.279 50.0117C153.17 49.3414 151.932 49.0005 150.602 49.0005C149.284 49.0005 148.064 49.3154 146.955 49.9424C145.857 50.5722 145.306 51.3638 145.306 52.3057C145.306 53.1118 145.685 53.7792 146.445 54.3397C147.213 54.8857 148.454 55.27 150.17 55.4722C151.878 55.6773 153.196 55.9229 154.115 56.1974C155.023 56.469 155.812 56.9486 156.473 57.6448C157.133 58.3296 157.453 59.0923 157.453 59.9273C157.453 61.0743 156.884 62.1115 155.745 63.0129C154.596 63.9143 153.049 64.365 151.091 64.365C149.453 64.365 147.935 63.9952 146.515 63.244C146.115 63.5156 145.784 63.8189 145.497 64.1714H144.877V64.1859H144.879Z" fill="white"/>
<path d="M130.636 49.3562V63.4379H133.971V64.0128H123.492V63.4379H126.868V56.9229H117.689V63.4379H121.006V64.0128H110.578V63.4379H113.913V49.3562H110.578V48.7812H121.006V49.3562H117.689V56.3479H126.868V49.3562H123.492V48.7812H133.971V49.3562H130.636Z" fill="white"/>
<path d="M93.7257 63.4348V56.9053H91.8082C91.1395 56.9053 90.5595 56.9457 90.0895 57.0411C89.6195 57.1364 89.2006 57.3964 88.8219 57.8067C88.4621 58.2314 88.2418 58.8728 88.1828 59.7598H87.3529V53.2996H88.1828C88.2633 54.5275 88.5936 55.3336 89.171 55.7294C89.7404 56.1252 90.6293 56.3159 91.8082 56.3159H93.7257V49.3502H89.3993C86.9447 49.3502 85.2448 49.72 84.3049 50.4567C83.3649 51.1934 82.7929 52.3404 82.6157 53.8717H81.8019L82.006 48.7637H100.845V49.3386H97.4693V63.4203H100.845V63.9952H82.7795L82.4116 59.9244H83.2226C83.5019 61.1523 84.0605 62.0537 84.9118 62.5998C85.7631 63.1458 87.1972 63.4203 89.1871 63.4203H93.723V63.4348H93.7257Z" fill="white"/>
<path d="M53.3324 63.4349V48.4258H53.9796L67.9685 63.5042H68.033V49.3561H64.4397V48.7811H71.9914V49.3561H68.844V63.4378H72.2197V64.0127H64.1094L54.2079 53.3316H54.1461V63.4378H57.6614V64.0127H50.1205V63.4378H53.3324V63.4349Z" fill="white"/>
<path d="M37.0286 49.3562V63.4379H40.493V64.0128H29.7535V63.4379H33.2555V49.3562H29.7535V48.7812H40.493V49.3562H37.0286Z" fill="white"/>
<path d="M12.8883 63.4348V56.9053H10.9708C10.2967 56.9053 9.72739 56.9457 9.25742 57.0411C8.78745 57.1364 8.36851 57.3964 7.98716 57.8067C7.60582 58.217 7.40441 58.8728 7.35338 59.7598H6.52892V53.2996H7.35338C7.442 54.5275 7.77232 55.3336 8.34434 55.7294C8.91636 56.1252 9.80527 56.3159 10.9842 56.3159H12.9017V49.3502H8.56993C6.12072 49.3502 4.4181 49.72 3.48085 50.4567C2.54091 51.1934 1.97158 52.3404 1.79165 53.8717H0.980621L1.18472 48.7637H20.021V49.3386H16.6453V63.4203H20.021V63.9952H1.95815L1.59024 59.9244H2.40127C2.68056 61.1523 3.23915 62.0537 4.09046 62.5998C4.94178 63.1458 6.37585 63.4203 8.36851 63.4203H12.8883V63.4348Z" fill="white"/>
<path d="M21.7745 0.0933003C22.7708 0.575788 23.5362 1.26629 24.076 2.15615C24.6131 3.04601 24.8843 4.10343 24.8843 5.32554C24.8843 6.53032 24.6158 7.58197 24.076 8.48049C23.5389 9.3819 22.7735 10.0666 21.7745 10.5433C20.7808 11.02 19.6072 11.2599 18.2537 11.2599H15.1788V15.7871H11.65V-0.634766H18.2537C19.6046 -0.634766 20.7781 -0.392076 21.7745 0.0933003ZM20.4774 7.42017C21.0306 6.92613 21.3045 6.22696 21.3045 5.31976C21.3045 4.39813 21.0306 3.6874 20.4774 3.19913C19.9241 2.70798 19.1185 2.45951 18.0604 2.45951H15.1815V8.16269H18.0604C19.1212 8.16269 19.9241 7.91422 20.4774 7.42017Z" fill="white"/>
<path d="M44.325 15.7871L41.3844 11.2136H41.2098H38.1349V15.7871H34.6061V-0.634766H41.2098C42.5606 -0.634766 43.7342 -0.392076 44.7305 0.0933003C45.7269 0.575788 46.4922 1.26629 47.032 2.15615C47.5691 3.04601 47.8377 4.10343 47.8377 5.32554C47.8377 6.54765 47.5664 7.59641 47.0186 8.48049C46.4734 9.36457 45.7 10.0377 44.6983 10.5087L48.1223 15.7871H44.3277H44.325ZM43.4334 3.19913C42.8802 2.70798 42.0718 2.45951 41.0111 2.45951H38.1349V8.1858H41.0111C42.0718 8.1858 42.8802 7.93444 43.4334 7.43462C43.9866 6.9348 44.2606 6.22985 44.2606 5.32266C44.2606 4.40391 43.9839 3.69318 43.4334 3.19913Z" fill="white"/>
<path d="M69.9421 12.2653H62.855L61.5042 15.7871H57.8841L64.6892 -0.634766H68.1777L75.0043 15.7871H71.2956L69.9421 12.2653ZM68.8276 9.37901L66.408 3.09223L63.991 9.37901H68.8276Z" fill="white"/>
<path d="M101.397 -0.634766L94.7855 15.7871H91.2997L84.7148 -0.634766H88.5309L93.1769 11.0952L97.8819 -0.634766H101.397Z" fill="white"/>
<path d="M111.227 -0.634766H114.753V15.7871H111.227V-0.634766Z" fill="white"/>
<path d="M124.483 -0.634766H128.019V12.6871H135.67V15.7842H124.483V-0.634766Z" fill="white"/>
<path d="M159.494 -0.634766V15.7871H156.596L148.986 5.8167V15.7871H145.5V-0.634766H148.416L156.008 9.33568V-0.634766H159.494Z" fill="white"/>
<path d="M173.008 14.6488C171.781 13.941 170.83 12.9644 170.132 11.7221C169.442 10.4798 169.093 9.08721 169.093 7.53574C169.093 5.98427 169.442 4.58881 170.132 3.34648C170.83 2.10414 171.789 1.1305 173.008 0.422663C174.235 -0.2794 175.605 -0.634766 177.133 -0.634766C178.661 -0.634766 180.031 -0.279397 181.247 0.425555C182.456 1.13051 183.425 2.10704 184.123 3.34937C184.814 4.5917 185.163 5.98716 185.163 7.53863C185.163 9.0901 184.814 10.4856 184.123 11.725C183.415 12.9673 182.456 13.941 181.247 14.6517C180.028 15.3567 178.661 15.712 177.133 15.712C175.608 15.712 174.238 15.3567 173.008 14.6488ZM179.483 11.9504C180.181 11.5228 180.732 10.9247 181.132 10.1533C181.532 9.3848 181.731 8.51227 181.731 7.53574C181.731 6.55921 181.532 5.68669 181.132 4.91817C180.732 4.14966 180.184 3.55161 179.483 3.12112C178.785 2.69353 178.006 2.47973 177.136 2.47973C176.266 2.47973 175.487 2.69353 174.789 3.12112C174.09 3.54872 173.54 4.14677 173.14 4.91817C172.74 5.68669 172.541 6.55921 172.541 7.53574C172.541 8.51227 172.74 9.3848 173.14 10.1533C173.54 10.9218 174.088 11.5199 174.789 11.9504C175.487 12.378 176.266 12.5917 177.136 12.5917C178.006 12.5917 178.782 12.3808 179.483 11.9504Z" fill="white"/>
<path d="M206.78 12.7362V15.7871H194.964V-0.634766H206.501V2.41328H198.469V5.97849H205.561V8.93409H198.469V12.7333H206.78V12.7362Z" fill="white"/>
</svg>
