<svg width="150" height="45" viewBox="0 0 150 45" fill="none" xmlns="http://www.w3.org/2000/svg">
<path d="M79.2822 22.6765H75.6737V26.5268H74.8917V22.6765H71.2832V21.8264H74.8917V17.9761H75.6737V21.8264H79.2822V22.6765Z" fill="#383535"/>
<path d="M147.909 34.1695V43.9184H150.221V44.3164H142.153C141.094 44.3164 140.236 44.2504 139.556 44.1184C138.876 43.9864 138.295 43.7124 137.804 43.3043C137.312 42.8983 137.063 42.4162 137.063 41.8862C137.063 41.2241 137.422 40.6761 138.137 40.27C138.85 39.864 140.076 39.542 141.779 39.334V39.296C140.554 39.1259 139.549 38.7859 138.754 38.2939C137.964 37.8018 137.577 36.9518 137.577 35.7596C137.577 35.0796 137.465 34.6435 137.243 34.4455C137.022 34.2475 136.703 34.1615 136.316 34.1615C136.059 34.1615 135.756 34.1995 135.395 34.2755V33.8875C136.024 33.7275 136.642 33.6515 137.243 33.6515C138.448 33.6515 139.301 33.8975 139.806 34.3795C140.305 34.8616 140.539 35.3356 140.526 35.7977L140.478 37.1398C140.478 37.6038 140.686 38.0659 141.107 38.5199C141.515 38.9739 142.457 39.2 143.919 39.2H145.296V34.1895H142.976V33.7915H150.227V34.1895H147.907V34.1695H147.909ZM145.298 43.9164V39.548H143.317C142.472 39.548 141.822 39.586 141.371 39.67C140.921 39.756 140.569 39.964 140.297 40.3041C140.02 40.6441 139.889 41.1921 139.889 41.9402C139.889 42.5543 140.022 42.9983 140.297 43.2823C140.567 43.5663 140.893 43.7364 141.28 43.8024C141.667 43.8684 142.167 43.8964 142.798 43.8964H145.298V43.9164Z" fill="#383535"/>
<path d="M123.71 43.9164V39.396H122.381C121.91 39.396 121.515 39.424 121.189 39.49C120.863 39.556 120.573 39.736 120.31 40.02C120.054 40.3141 119.908 40.7581 119.86 41.3722H119.292V36.8998H119.86C119.921 37.7498 120.15 38.3079 120.545 38.5819C120.947 38.8559 121.556 38.9879 122.381 38.9879H123.71V34.1655H120.705C119.009 34.1655 117.83 34.4215 117.18 34.9316C116.529 35.4416 116.128 36.2357 116.009 37.2958H115.441L115.587 33.7595H128.641V34.1575H126.3V43.9064H128.641V44.3044H116.119L115.862 41.4862H116.43C116.624 42.3362 117.005 42.9603 117.601 43.3383C118.19 43.7164 119.18 43.9064 120.566 43.9064H123.71V43.9164Z" fill="#383535"/>
<path d="M99.9963 44.4364L99.9274 41.6942H100.447C101.175 43.3383 102.469 44.1524 104.325 44.1524C105.357 44.1524 106.146 43.9544 106.709 43.5383C107.284 43.1323 107.567 42.7063 107.567 42.2802C107.567 41.8742 107.325 41.5342 106.861 41.2501C106.383 40.9661 105.525 40.7481 104.271 40.5981C103.024 40.4461 102.061 40.2581 101.411 40.03C100.76 39.804 100.207 39.434 99.7562 38.9139C99.313 38.3939 99.084 37.7978 99.084 37.1278C99.084 36.0957 99.5551 35.2356 100.49 34.5455C101.432 33.8555 102.596 33.5155 103.994 33.5155C105.13 33.5155 106.266 33.8175 107.388 34.4235L108.42 33.7615H108.807V36.7117H108.329C107.899 35.7857 107.29 35.0856 106.513 34.6236C105.744 34.1595 104.886 33.9235 103.964 33.9235C103.05 33.9235 102.205 34.1415 101.436 34.5755C100.674 35.0116 100.292 35.5596 100.292 36.2117C100.292 36.7697 100.555 37.2318 101.082 37.6198C101.614 37.9979 102.475 38.2639 103.664 38.4039C104.849 38.5459 105.763 38.7159 106.4 38.9059C107.029 39.0939 107.576 39.426 108.034 39.908C108.493 40.3821 108.714 40.9101 108.714 41.4882C108.714 42.2822 108.319 43.0003 107.53 43.6244C106.733 44.2484 105.66 44.5604 104.303 44.5604C103.167 44.5604 102.115 44.3044 101.13 43.7844C100.853 43.9724 100.624 44.1824 100.425 44.4264H99.9945V44.4364H99.9963Z" fill="#383535"/>
<path d="M90.1209 34.1695V43.9184H92.4335V44.3164H85.1681V43.9184H87.5086V39.408H81.1444V43.9184H83.4439V44.3164H76.2139V43.9184H78.5264V34.1695H76.2139V33.7715H83.4439V34.1695H81.1444V39.0099H87.5086V34.1695H85.1681V33.7715H92.4335V34.1695H90.1209Z" fill="#383535"/>
<path d="M64.5298 43.9164V39.396H63.2004C62.7368 39.396 62.3346 39.424 62.0087 39.49C61.6829 39.556 61.3924 39.736 61.1299 40.02C60.8804 40.3141 60.7277 40.7581 60.6867 41.3722H60.1114V36.8998H60.6867C60.7426 37.7498 60.9716 38.3079 61.3719 38.5819C61.7667 38.8559 62.383 38.9879 63.2004 38.9879H64.5298V34.1655H61.5302C59.8284 34.1655 58.6497 34.4215 57.998 34.9316C57.3464 35.4416 56.9498 36.2357 56.8269 37.2958H56.2627L56.4042 33.7595H69.4659V34.1575H67.1254V43.9064H69.4659V44.3044H56.9405L56.6854 41.4862H57.2477C57.4413 42.3362 57.8286 42.9603 58.4189 43.3383C59.0091 43.7164 60.0034 43.9064 61.3831 43.9064H64.528V43.9164H64.5298Z" fill="#383535"/>
<path d="M36.5238 43.9164V33.5254H36.9725L46.6715 43.9644H46.7162V34.1695H44.2249V33.7715H49.4607V34.1695H47.2785V43.9184H49.619V44.3164H43.9959L37.1308 36.9217H37.088V43.9184H39.5253V44.3164H34.2969V43.9184H36.5238V43.9164Z" fill="#383535"/>
<path d="M25.2198 34.1695V43.9184H27.6218V44.3164H20.1758V43.9184H22.6038V34.1695H20.1758V33.7715H27.6218V34.1695H25.2198Z" fill="#383535"/>
<path d="M8.48252 43.9164V39.396H7.15308C6.68572 39.396 6.29099 39.424 5.96514 39.49C5.6393 39.556 5.34883 39.736 5.08443 40.02C4.82003 40.3041 4.68039 40.7581 4.64501 41.3722H4.07339V36.8998H4.64501C4.70645 37.7498 4.93548 38.3079 5.33207 38.5819C5.72867 38.8559 6.34498 38.9879 7.16239 38.9879H8.49183V34.1655H5.48848C3.79037 34.1655 2.60988 34.4215 1.96005 34.9316C1.30837 35.4416 0.913628 36.2357 0.788876 37.2958H0.226562L0.368072 33.7595H13.4279V34.1575H11.0874V43.9064H13.4279V44.3044H0.904319L0.649229 41.4862H1.21154C1.40519 42.3362 1.79248 42.9603 2.38272 43.3383C2.97296 43.7164 3.96725 43.9064 5.34883 43.9064H8.48252V43.9164Z" fill="#383535"/>
<path d="M14.6436 0.0644705C15.3344 0.3985 15.8651 0.876543 16.2393 1.4926C16.6117 2.10865 16.7998 2.84072 16.7998 3.68679C16.7998 4.52087 16.6136 5.24893 16.2393 5.87099C15.8669 6.49504 15.3363 6.96908 14.6436 7.29911C13.9547 7.62914 13.141 7.79516 12.2026 7.79516H10.0706V10.9294H7.62402V-0.439575H12.2026C13.1392 -0.439575 13.9528 -0.271559 14.6436 0.0644705ZM13.7443 5.13692C14.1279 4.79489 14.3178 4.31085 14.3178 3.68279C14.3178 3.04473 14.1279 2.55269 13.7443 2.21466C13.3607 1.87463 12.8022 1.70262 12.0685 1.70262H10.0725V5.65097H12.0685C12.804 5.65097 13.3607 5.47895 13.7443 5.13692Z" fill="#383535"/>
<path d="M30.2787 10.9294L28.2398 7.76316H28.1188H25.9868V10.9294H23.5402V-0.439575H28.1188C29.0554 -0.439575 29.869 -0.271559 30.5598 0.0644705C31.2506 0.3985 31.7813 0.876543 32.1555 1.4926C32.5279 2.10865 32.7141 2.84072 32.7141 3.68679C32.7141 4.53287 32.5261 5.25893 32.1462 5.87099C31.7683 6.48304 31.232 6.94908 30.5375 7.27511L32.9115 10.9294H30.2805H30.2787ZM29.6605 2.21466C29.2769 1.87463 28.7165 1.70262 27.981 1.70262H25.9868V5.66697H27.981C28.7165 5.66697 29.2769 5.49295 29.6605 5.14692C30.0441 4.80089 30.234 4.31285 30.234 3.68479C30.234 3.04874 30.0422 2.55669 29.6605 2.21466Z" fill="#383535"/>
<path d="M48.0399 8.49122H43.1261L42.1896 10.9294H39.6796L44.3978 -0.439575H46.8165L51.5497 10.9294H48.9783L48.0399 8.49122ZM47.2671 6.49304L45.5895 2.14066L43.9137 6.49304H47.2671Z" fill="#383535"/>
<path d="M69.8488 -0.439575L65.2646 10.9294H62.8478L58.2822 -0.439575H60.9281L64.1493 7.68115L67.4114 -0.439575H69.8488Z" fill="#383535"/>
<path d="M76.6641 -0.439575H79.1088V10.9294H76.6641V-0.439575Z" fill="#383535"/>
<path d="M85.8546 -0.439575H88.3068V8.78324H93.6115V10.9274H85.8546V-0.439575Z" fill="#383535"/>
<path d="M110.129 -0.439575V10.9294H108.12L102.843 4.02682V10.9294H100.427V-0.439575H102.449L107.712 6.46304V-0.439575H110.129Z" fill="#383535"/>
<path d="M119.499 10.1414C118.648 9.65132 117.989 8.97526 117.505 8.11519C117.026 7.25511 116.784 6.29102 116.784 5.21693C116.784 4.14283 117.026 3.17675 117.505 2.31667C117.989 1.45659 118.654 0.782534 119.499 0.292491C120.35 -0.193553 121.299 -0.439575 122.359 -0.439575C123.418 -0.439575 124.368 -0.193551 125.211 0.294493C126.049 0.782536 126.721 1.4586 127.206 2.31867C127.684 3.17875 127.926 4.14483 127.926 5.21893C127.926 6.29303 127.684 7.25911 127.206 8.11719C126.714 8.97726 126.049 9.65132 125.211 10.1434C124.366 10.6314 123.418 10.8774 122.359 10.8774C121.301 10.8774 120.352 10.6314 119.499 10.1414ZM123.988 8.2732C124.472 7.97718 124.854 7.56314 125.131 7.02909C125.409 6.49704 125.547 5.89299 125.547 5.21693C125.547 4.54087 125.409 3.93681 125.131 3.40477C124.854 2.87272 124.474 2.45868 123.988 2.16066C123.504 1.86463 122.964 1.71662 122.361 1.71662C121.757 1.71662 121.218 1.86463 120.733 2.16066C120.249 2.45668 119.868 2.87072 119.59 3.40477C119.313 3.93681 119.175 4.54087 119.175 5.21693C119.175 5.89299 119.313 6.49704 119.59 7.02909C119.868 7.56114 120.247 7.97518 120.733 8.2732C121.218 8.56923 121.757 8.71724 122.361 8.71724C122.964 8.71724 123.502 8.57123 123.988 8.2732Z" fill="#383535"/>
<path d="M142.914 8.81725V10.9294H134.722V-0.439575H142.721V1.67061H137.152V4.13883H142.069V6.18502H137.152V8.81525H142.914V8.81725Z" fill="#383535"/>
</svg>
